<?xml version="1.0" encoding="UTF-8"?><svg id="blade" xmlns="http://www.w3.org/2000/svg" width="460.31" height="462.92" viewBox="0 0 460.31 462.92"><defs><style>.cls-1{fill:#83806d;stroke-width:0px;}</style></defs><path class="cls-1" d="m28.43,460.77c4.68-93.94,44.66-210.6,149.28-229.31,65.15-7.66,108.84-35.31,151.97-83.82,26.74-30.16,47.46-67.05,52.04-107.6-6.97,32.66-21.88,72.12-46.9,99.67-24.95,29.07-54.27,55.87-88.87,72.89-36.99,16.9-80.36,13.54-115.82,34.59-71.86,41.93-101.25,138.71-101.71,213.59h0Z"/><path class="cls-1" d="m381.7,40.2c2-20.68,26.21-15.82,40.83-17.61,11.79-2,20.47-11.02,28.31-19.37.55-.59-.33-1.47-.88-.88-7.83,8.32-16.39,17.27-28.22,19.12-11.42,1.78-24.47-1.88-34.47,5.59-2.85.29-9.61,15.59-5.57,13.14h0Z"/><path class="cls-1" d="m449.45,3.18c6.96,14.78,10.48,35.19-2.42,47.79-19.69,16.78-47.14-.27-69.53,7.68-.76.25-.44,1.45.33,1.2,7.98-2.6,16.68-2.29,24.94-1.65,22.8,3.7,51.67,3.29,54.02-26.12,2.24-2.65-5.48-35.12-7.35-28.9h0Z"/><path class="cls-1" d="m362.94,98.71c-12.03-33.92-59.19-8.94-78.62-33.87-.48-.63-1.57-.01-1.08.63,23.2,26.76,60.86-.32,79.7,33.24h0Z"/><path class="cls-1" d="m283.24,65.47c6.43,13.12,1.3,29.23,9.19,41.86,6.83,10.93,20.74,14.81,32.95,13.9,7.09-.53,15.86-1.65,22.05,2.68.66.46,1.29-.62.63-1.08-16.98-8.99-38.23,5.48-53.57-14.69-9.04-12.72-3.41-29.73-10.17-43.31-.35-.72-1.43-.09-1.08.63h0Z"/><path class="cls-1" d="m316.31,161.54c62.1-3.17,32.64,19.73,67.62,24.48,1.73-.16,15.02,3.63,12.6.78-11.39-2.41-27.44-.99-32.62-13.84-5.29-9.78-17.09-11.55-27.16-12.32-2.22.01-23.73-2-20.45.91Z"/><path class="cls-1" d="m395.92,186.96c-21.43,19.77-54.46,15.82-75.71-2.09-1.16-2.11-24.37-11.98-20.91-7.05,14.74.96,25.23,13.23,38.1,18.97,19.31,8.63,43.67,5.42,59.41-8.94.6-.54-.29-1.42-.88-.88h0Z"/><path class="cls-1" d="m253.23,209.83c-2.45-7.57,14.26-16.45,16.87-27.14,9.82-19.18-8.18-31.19-5.77-48.46.21-.78-1-1.11-1.2-.33-2.53,24.7,23.07,31.1-3.3,62.23-3.44,3.73-9.9,8.02-7.79,14.03.27.75,1.47.43,1.21-.33h0Z"/><path class="cls-1" d="m263.23,134.21c-15.85,15.6-33.61,9.72-42.62,21.98-7.52,14.06-8.11,35.25,5.13,46.11,1.03,2.49,24.58,14.39,22.29,9.48-6.92-1.35-13.62-4.49-19.28-8.67-14.25-9.51-14.76-30.32-8-44.6,5.87-11.77,21.41-8.68,31.21-15.01,1.43-.88,15.27-9.08,11.26-9.29h0Z"/><path class="cls-1" d="m189.74,229.22c17.95,1.86,34.17,20.32,30.65,38.62-2.47,10.97-13.3,19.76-10.95,31.71.17.79,1.37.45,1.21-.33-2.17-12.13,9.44-20.88,11.2-32.3,2.88-18.71-13.85-37.16-32.11-38.96-.8-.05-.8,1.2,0,1.25Z"/><path class="cls-1" d="m210.49,298.95c-22.68-19.09-41.62,8.46-53.44-11.76-6.7-14.83-7.16-32.02-6.19-48.05.07-.8-1.18-.8-1.25,0-.41,16.64-2.42,53.11,18.46,57.46,15.06-1.94,27.67-8.23,41.54,3.23.61.51,1.5-.37.88-.89h0Z"/><path class="cls-1" d="m116.65,256.76c3.04-8.65-.44-19.7-8.88-23.9-9.59-4.89-21.49-2.51-30.44-9.02-5.13-3.73-8.6-9.27-12.28-14.32-4.34-1.61,7.69,12.12,8.75,12.98,14.35,13.98,48.31,1.59,41.65,33.93-.28.75.93,1.08,1.21.33h0Z"/><path class="cls-1" d="m63.91,209.68c-4.67,16.68-7.99,39.39,8.68,50.54,10.23,6.02,22.71,3.36,33.94,5.15.79.12,1.13-1.09.33-1.21-24.17-1.2-44.89-.04-45.62-30.89-1.43-2.9,5.9-27.57,2.67-23.58h0Z"/><path class="cls-1" d="m76.24,300.02c22.48-4.85,16.57,10.99,40.57,6.27.78-.17.45-1.38-.33-1.21-6.84,1.51-14.14.99-20.17-2.82-5.5-6.02-12.84-4.37-20.07-3.5-.79.08-.8,1.33,0,1.25Z"/><path class="cls-1" d="m116.11,305.37c-11.11,14.22-34.08,13.79-50.18,9.87-.77-.23-1.11.98-.33,1.2,13.87,4.01,30.18,3.32,43.24-3.1,1.72.02,11.77-8.8,7.28-7.97h0Z"/><path class="cls-1" d="m51.4,344.08c-17.66,1.93-34.95-8.06-44.13-22.92-.43-.68-1.51-.05-1.08.63,9.38,15.15,27.13,25.6,45.21,23.54.79-.08.8-1.34,0-1.25h0Z"/><path class="cls-1" d="m6.11,321.48c-.51,11.51-5.27,23.13-1.67,34.57,5.2,18.17,26.79,14.85,40.26,8.73.75-.26.43-1.47-.33-1.2-21.28,9.88-42.98,5.67-39.74-22.09-.31-2.27,4.95-23.16,1.48-20.02h0Z"/><path class="cls-1" d="m33.71,414.51c19.5-40.64,34-19.11,62.65-28.36,1.68-.31,6.3-9.09,2.89-7.07-.36,2.64-2.01,5.08-4.26,6.5-13.64,5.29-30.02-2.9-43.31,4.64-4.17,2.36-7.67,5.78-10.61,9.52-1.24,1.4-11.32,16.23-7.37,14.76h0Z"/><path class="cls-1" d="m99.26,379.42c14.52,38.22-31.23,38.89-56.91,38.45-2.95-.11-6.29-.56-8.86-2.11-.69-.41-1.32.67-.63,1.08,5.16,3.1,12.16,2.31,17.88,2.23,17.68-1.16,44.8.75,51.52-19.9,1.8-1.92-.45-23.94-3-19.75h0Z"/></svg>