<?xml version="1.0" encoding="UTF-8"?><svg id="blomst_og_sommerfugl" xmlns="http://www.w3.org/2000/svg" width="256.8" height="277.44" viewBox="0 0 256.8 277.44"><defs><style>.cls-1{fill:#d0884c;stroke-width:0px;}</style></defs><g id="blomst"><path class="cls-1" d="m223.27,274.54c-11.86-46.43-43.4-43.66-59.12-83.38-6.64-11.85-9.36-24.97-12.07-38.1-3.77-13.05-11.59-24.28-18.42-35.85-.49-.83-1.79-.08-1.3.76,6.1,10.35,13.06,20.38,17.08,31.79,3.75,12.45,4.75,25.65,11.08,37.27,6.92,16.7,16.4,32.45,32.01,42.28,14.23,11.65,24.65,27.84,29.29,45.64.24.93,1.69.54,1.45-.4h0Z"/><path class="cls-1" d="m164.66,192.17c.76-11.25,9.88-18.24,18.72-23.7,2.25-5.12-14.23,8.26-14.67,9.75-1.76.81-8.5,17.62-4.05,13.95h0Z"/><path class="cls-1" d="m184.22,167.08c-1.71-9.95,3.77-19.14,9.94-26.45,10.18-10.43,19.58-24.3,33.81-29.12.95-.19.55-1.64-.4-1.45-14.46,4.7-23.81,18.75-34.19,29.16-6.75,7.69-12.46,17.67-10.61,28.24.16.95,1.61.55,1.45-.4h0Z"/><path class="cls-1" d="m227.12,110.42c-6.08,8.08-5.52,19.13-8.63,28.39-5.17,13.52-18.05,34.76-35.11,28.36-.88-.37-1.64.92-.76,1.29,21.95,7.74,37.12-22.34,39.9-40.18,1.09-5.91,2.19-12.19,5.89-17.11.58-.77-.72-1.52-1.3-.76h0Z"/><path class="cls-1" d="m184.58,167.6c3.32-8.18,11.27-13.25,16.23-20.32,2.67-3.8,4.8-7.95,7.12-11.96,4.37-8.85,13.5-17.59,18.57-24.09-10.9,9.56-18.08,22.18-25.27,34.55-4.24,7.47-15.64,14.38-16.65,21.83h0Z"/><path class="cls-1" d="m168.27,181.09c14.28-3.83,35.23-1.67,49.11,3.33,11.38,7.53,23,14.6,35.63,19.94.87.42,1.63-.88.76-1.29-12.12-5.3-23.64-11.66-34.42-19.31-2.96-4.95-56.89-9.06-51.08-2.66Z"/><path class="cls-1" d="m253.43,203.18c-20.52,7.44-44.84,1.12-62.05-11.41-6.64-7.06-15.07-9.15-24.48-9.4-.97-.03-.96,1.47,0,1.5,8.79.05,17.7,2.57,23.75,9.25,16.86,12.5,43.06,19.19,63.19,11.5.89-.35.5-1.8-.4-1.45h0Z"/><path class="cls-1" d="m168.13,181.76c11.33-1.85,24.22,5.84,34.53,9.98,15.18,5.67,34.62,12.34,49.51,11.72-16.55-1.17-32.87-5.94-48.35-11.77-10.27-3.79-26.04-13.61-35.7-9.93Z"/><path class="cls-1" d="m134.47,118.64c32.9-6.69,69.67-6.87,59.91-51.51-.22-.94-1.66-.54-1.44.4,6.15,33.79-9.61,40.55-39.38,46.03-1.99.85-23.99,2.74-19.09,5.07Z"/><path class="cls-1" d="m194.43,67.27c-2.42-5.78-10.27-7.24-15.2-10.51-5.75-2.89-10.92-7.22-17.76-6.48-.95.1-.96,1.6,0,1.5,7.95-.69,13.84,5.29,20.78,8.12,3.23,2.8,9.24,3.37,10.73,7.76.2.94,1.64.54,1.45-.4h0Z"/><path class="cls-1" d="m161.47,50.29c-21.62,9.4-4.98,53.39-27.88,65.81-.86.44-.1,1.74.76,1.3,22.93-12.11,8.27-56.91,27.12-65.61.95-.12.96-1.62,0-1.5h0Z"/><path class="cls-1" d="m183.44,58.85c-2.52-22.27-8.52-28.15-28.26-37.22-6.88-4.26-10.66-11.76-17.21-16.37-9.44-6.69-26.62-2.37-30.25,8.94-.93,1.27-1.21,15.64,1.33,11.25-5.42-16.27,15.52-27.77,28.3-18.79,6.01,4.31,9.6,11.17,15.72,15.39,20.17,10.08,26.18,13.4,28.91,37.2.17.95,1.61.55,1.45-.4h0Z"/><path class="cls-1" d="m153.61,60.57c-16.6-39.71-29.8-6.61-43.77-12.74-5.67-2.8-14.33-3.14-15.46,4.79-1.66,8.51,6.37,13.75,9.28,20.8,1.73,4.47,1.5,9.43,1.27,14.13,2.73,3.69,1.47-9.84,1.12-11.16-1.14-7.54-8.36-12.05-10.14-19.27-1.79-8.33,5-11.89,12.03-8.35,17.21,8.25,27.75-26.8,44.22,12.19.35.89,1.8.5,1.45-.4h0Z"/><path class="cls-1" d="m117.64,49.18c1.42-20.03-14.84-28.77-27.96-39.98-5.22-8.15-18.27-8.23-24.74-1.5-4.58,4.84-6.56,11.78-12.05,15.8-5.49,3.94-13.16,5.53-16.31,12.1-2.84,6.44-4.03,14.79-.93,21.32,1.66,3.63,5.42,5.43,7.83,8.44,4.01,5.32,2.56,12.8,5.99,18.4,4.53,7,14.08,6.09,21.4,6.6,9.11.07,19.86,1.25,27.08-5.44.66-.7-.4-1.76-1.06-1.06-9.09,7.66-22.46,4.71-33.43,4.56-15.59-.87-13.5-8.16-16.77-20.1-2.27-6.61-10.46-9.01-11.1-16.49-1.91-22.24,10.01-19.19,21.88-30.69,3.79-4.72,5.93-11.32,11.24-14.65,7.19-4.02,16.34-2.2,20.89,4.74,5.24,4.99,11.61,8.6,16.85,13.6,6.61,6.28,9.92,15.29,9.69,24.35-.03.97,1.47.96,1.5,0h0Z"/><path class="cls-1" d="m45.91,69.98c-8.43,1.87-17.01,1.27-25.47.25-11.99,2.62-20.99,17.31-17.05,29.25,1.7,5.07,6.1,9.01,6.09,14.63-.75,16.57,16.06,25.79,30.97,23.94,2.43,1.76,37.69-13.42,30.41-13.7-8.37,4.04-16.41,9.59-25.64,11.48-18.87,4.51-35.71-6.22-35.05-26.4-7.63-11-8.95-24.33,2.39-33.46,4.3-5.08,10.29-4.27,16.14-3.32,5.88.37,11.83-.15,17.62-1.22.95-.18.55-1.62-.4-1.45h0Z"/><path class="cls-1" d="m102.84,110.71c-8.89,4.04-20.23,1.32-27.88,8.26-7.86,8.16-10.83,20.72-20.21,27.49-9.31,2.87-17.53,7.37-9.58,17.85,10.54,5.14,23.01,6.2,33.56,11.84,10.24,4.75,24.18,5.16,32.67-3.21,5.2-4.93,13.94-8.88,13.05-17.27.19-8.46-.61-17.01.16-25.43,1.08-5.31,6.77-7.15,9.49-11.4.53-.81-.76-1.56-1.3-.76-1.73,2.62-4.55,4.23-6.72,6.44-6.77,9.15-1.7,22.2-3.17,32.85.06,4.04-3.1,6.66-6.01,8.94-8.39,9.06-19.81,14.15-32.14,10.62-12.26-5.82-25.52-9.05-38.21-13.4-7.05-7.62-.68-13.54,7.58-15.13,12.8-6.6,13.78-25.28,26.85-31.39,5.88-2.28,12.38-1.95,18.43-3.53,1.19-.23,7.08-2.09,3.43-2.78h0Z"/><path class="cls-1" d="m133.93,117.44c-.94-5.55-.23-11.31,2.03-16.47.26-.58-.6-1.09-.86-.5-1.76,1.31-4.13,20.14-1.17,16.97h0Z"/><path class="cls-1" d="m133.45,110.5c-5.07-6-3.62-13.8-1.45-20.69.17-.62-.79-.89-.96-.27-2.26,8.23-3.93,14.04,1.55,21.46.35.54,1.22.04.86-.5h0Z"/><path class="cls-1" d="m133.58,117.34c-21.34-24.17,5.55-15.85-38.08-34.79-.58-.27-1.09.59-.5.86,8.36,4.55,18.29,7,25.66,13.09,4.91,7.68,3.54,15.02,12.21,21.54.46.45,1.17-.26.71-.71h0Z"/><path class="cls-1" d="m121.1,95.9c2.48-6.96.83-13.78-1.19-20.48.01-.64-.99-.64-1,0,1.85,6.64,3.75,13.33,1.23,20.21-.16.62.8.89.97.27h0Z"/><path class="cls-1" d="m124.54,104.42c-7.08,1.91-15.61.03-20.63-5.49-.43-.48-1.14.23-.71.71,5.26,5.77,14.2,7.74,21.6,5.75.62-.17.36-1.13-.27-.96h0Z"/><path class="cls-1" d="m131.07,115.65c-22.2,8.94-28.5-15.47-48.76-10.16-.62.17-.36,1.14.27.97,20.09-5.88,26.76,21.24,48.49,9.2h0Z"/><path class="cls-1" d="m111.41,116.01c-5.33,3.88-11.87,6.75-18.52,6.96-.64.02-.64,1.02,0,1,2.26,1.23,22.48-6.46,18.52-7.96h0Z"/><path class="cls-1" d="m127.96,56.89c1.8,6.33,3.41,13.16,1.24,19.6-.1.31.38.44.48.13,1.86-5.83,1.1-15.76-1.72-19.74h0Z"/><path class="cls-1" d="m130.45,73.44c5.79-6.68,10.12-15.14,8.06-24.22-.06-.32-.54-.18-.48.13,2.02,8.96-2.32,17.25-8.01,23.84-.17.27.26.52.43.25h0Z"/><path class="cls-1" d="m86.42,40.36c-4.31,7.14-7.95,21.29,1.26,25.96.31.1.44-.39.13-.48-6.82-2.82-5.48-12.75-4.15-18.58.07-1.32,4.12-7,2.76-6.89h0Z"/><path class="cls-1" d="m47.66,95.59c3.35,6.56,11.36,9.24,18.02,6.1.29-.14.04-.57-.25-.43-6.42,3.03-14.11.38-17.33-5.92-.15-.29-.58-.03-.43.25h0Z"/><path class="cls-1" d="m64.21,108.63c-8.96,3.32-1.92,11.87-14.55,12.93-.31.04-.32.54,0,.5,13.25-1.33,5.91-9.53,14.81-13,.29-.13.04-.56-.25-.43h0Z"/><path class="cls-1" d="m80.55,133.85c6.66,3.81,15.3,3.31,20.38-2.74.26-.19.01-.62-.25-.43-4.98,5.89-13.35,6.48-19.88,2.74-.27-.18-.52.26-.25.43h0Z"/><path class="cls-1" d="m116.61,127.89c-4.18,6.17-6.57,15.96-1.99,22.43.24.21.59-.14.35-.35-1.49-1.34-1.81-3.63-2.05-5.52-.71-5.7.79-11.61,4.12-16.3.19-.26-.25-.51-.43-.25h0Z"/><path class="cls-1" d="m113.11,135.56c-5.68,4.08-8.35,11.58-5.38,18.11.73,2.25,3.06,3.73,2.82,6.25.82.92.54-1.74.24-2.17-6.78-8.53-3.42-15.9,2.32-22.2h0Z"/><path class="cls-1" d="m61.19,71.05c9.33-1.73,9.35,11.06,18.95,6.8,1-1.14-4.76,1.04-5.76.1-2.17-.56-2.85-2.47-4.19-4.02-2.24-2.6-5.76-3.84-9.13-3.36-.32.04-.18.53.13.48Z"/><path class="cls-1" d="m156.85,105.87c14.21-1.42,18.71-6.34,24.99-18.29-.64-1.64-3.59,5.02-4.02,5.97-3.59,9.32-14.65,10.06-20.97,12.33Z"/><path class="cls-1" d="m163.16,97.07c-.08,3.03-1.49,5.92-3.81,7.85-.25.21.11.56.35.35,1.67-.52,5.44-8.55,3.46-8.21h0Z"/><path class="cls-1" d="m136.21,100.27c-1.64-10.08,13.7-5.32,0-.62-1.2,2.39,4.77-1.15,5.49-1.58,4.68-4.98-4.35-6.67-6.08-1.86-1,.77-.71,6.54.6,4.05h0Z"/><path class="cls-1" d="m131.95,89.93c.95-1.49,2.32-2.64,3.48-3.96,4.37-7.25-7.84-7.53-4.39,3.84,1.75,1.58.41-2.98.55-3.78-.5-2.02,1-5.18,3.38-3.88,3.07,1.78-6.91,8.52-3.02,7.78h0Z"/><path class="cls-1" d="m119.84,75.67c6.52-14.91-10.4-11.82-3.58-2.91.87.92,1.73,1.84,2.6,2.76,2.75.4-2.5-3.73-2.89-4.55-1.27-2.15,1.03-6.64,3.53-4.01,1.58,2.31.59,5.87-.52,8.21-.37.53.5,1.03.86.5h0Z"/><path class="cls-1" d="m95.4,82.3c-1-12.49-12.18-5.16-4.62-.26,1.04.1,6.62,2.78,5.11.72-2.01-1.38-5.25-.81-6.46-3.26-.49-1.08-.21-2.32.85-2.92,3.2-1.45,3.6,4,4.16,5.98.16.62,1.13.36.96-.27h0Z"/><path class="cls-1" d="m104.04,99.15c-.55-11.53-13.25-3.31-4.55.45,1.41.27,3.19-.5,4.32.65.42.49,1.13-.22.71-.71-1.72-2.02-5.09.3-6.61-1.99-1.48-2.87,2.29-4.68,4.08-2.14.88.48.84,6.33,2.05,3.75h0Z"/><path class="cls-1" d="m82.78,105.38c-2.57-.31-5.68-2.88-8.07-1.35-1.79,1.73-.88,5,1.58,5.51,2.95.46,5.12-2.28,7.59-3.42.58-.29.07-1.15-.5-.86-2.39,1.11-6.81,5.88-8.56,1.65-.2-.89.16-2.09,1.05-2.46,1.09-.33,8.51,3.49,6.92.93h0Z"/><path class="cls-1" d="m93.14,122.8c-6.86-5.48-13.07,3.54-6.59,3.77,1.16.61,9.24-2.93,5.82-3.21-1.93,1.61-4.75,2.64-7.22,2.05-.96-1.93,1.56-3.65,3.35-3.37,1.07-.46,5.74,3.2,4.65.77h0Z"/></g></svg>