<?xml version="1.0" encoding="UTF-8"?><svg id="logo" xmlns="http://www.w3.org/2000/svg" width="247.78" height="341.34" viewBox="0 0 247.78 341.34"><defs><style>.cls-1{fill:#353432;stroke-width:0px;}</style></defs><path class="cls-1" d="m32.56,101.93c8.45-3.95,16.59-8.55,24.33-13.77,7.81-5.28,15.22-11.13,22.46-17.16,13.73-11.43,26.36-24.1,35.99-39.25,5.24-8.25,9.52-17.29,11.46-26.92.27-1.32-.38-2.7-1.75-3.08-1.23-.34-2.81.42-3.08,1.75-1.68,8.31-5.12,16.06-9.47,23.31-4.37,7.28-9.53,14.12-15.22,20.43-5.89,6.53-12.36,12.51-19.06,18.19s-14.06,11.59-21.53,16.8c-8.43,5.88-17.35,11.02-26.66,15.37-1.22.57-1.53,2.33-.9,3.42.73,1.25,2.19,1.47,3.42.9h0Z"/><path class="cls-1" d="m119.22,13.24c-7.85,23.56-16.2,46.95-25.05,70.15-4.4,11.52-8.92,23-13.57,34.43-4.43,10.9-8.88,21.81-13.76,32.52-4.72,10.35-9.93,20.52-16.23,30-2.98,4.48-6.16,8.9-9.82,12.86-3.31,3.58-7.2,6.95-11.85,8.61-3.93,1.4-8.43,1.56-12.33-.05-4.34-1.79-6.45-5.63-7.47-10.03-2.09-8.94-.78-18.78,3.65-26.83,4.45-8.09,11.91-13.76,20.99-15.58,8.52-1.71,17.68.34,24.09,6.31,11.95,11.12,14.38,29.62,28.25,39.12,4.37,2.99,9.46,4.34,14.66,4.98,5.81.71,11.87.88,17.71.57s11.62-1.65,17.02-4.22c4.99-2.37,9.55-5.56,14.02-8.79,16.37-11.83,33.07-26.59,38.92-46.68,1.57-5.37,2.16-11.47.01-16.77-1.86-4.59-5.45-8.55-10.27-10.04-5.21-1.61-10.65.43-14.62,3.88-4.15,3.61-6.44,8.82-8.4,13.83-8.52,21.83-13.7,44.92-16.84,68.1-.77,5.66-1.42,11.34-1.95,17.03-.13,1.35,1.24,2.5,2.5,2.5,1.46,0,2.37-1.15,2.5-2.5,2.17-23.28,6.3-46.48,13.34-68.81,1.72-5.45,3.59-10.88,5.73-16.18,1.85-4.58,4.31-9.35,8.74-11.92,3.91-2.27,8.36-1.86,11.61,1.33,3.55,3.49,4.46,8.5,3.89,13.3-.62,5.22-2.77,10.33-5.24,14.93-2.33,4.35-5.16,8.42-8.34,12.19-6.54,7.73-14.34,14.32-22.48,20.3-4.39,3.23-8.86,6.44-13.69,8.99-5.01,2.64-10.33,4.15-15.99,4.5-5.78.35-11.75.17-17.51-.46-4.83-.53-9.48-1.92-13.43-4.81-6.18-4.52-9.93-11.92-13.51-18.62-3.84-7.18-7.76-14.73-14.04-20.12-7.37-6.32-17.09-8.49-26.58-7.01s-18,7.04-23.48,15.01-7.85,17.86-7.08,27.34c.43,5.28,1.55,10.88,4.95,15.09,2.93,3.63,7.41,5.52,11.95,6.07,10.33,1.25,19.19-5.25,25.59-12.69,7.39-8.59,13.4-18.42,18.65-28.44s9.86-20.72,14.29-31.31c4.76-11.37,9.39-22.79,13.91-34.25,9.03-22.96,17.57-46.11,25.61-69.43,1.96-5.68,3.88-11.37,5.78-17.06,1.02-3.06-3.81-4.37-4.82-1.33h0Z"/><path class="cls-1" d="m136.37,219.15c-1.08,15.44-2.21,30.91-4.57,46.22-2.33,15.16-5.74,30.4-11.77,44.56-2.81,6.61-6.32,13.1-11.32,18.32-3.99,4.17-10.19,8.25-16.17,5.67-5.3-2.29-6.95-8.91-7.58-14.1-1.01-8.25-1.18-16.79.21-25.01,2.33-13.69,9.44-25.95,18.03-36.66,8.98-11.2,19.4-21.33,29.82-31.16,10.38-9.79,21.52-19.1,34.53-25.2,6.05-2.83,12.78-5.2,19.49-5.7,6.29-.47,12.98.87,16.62,6.52,6.99,10.88,2.28,25.28-5.84,34.09-4.67,5.07-10.67,8.34-16.72,11.49-6.07,3.16-12.58,5.86-19.44,6.58-3.46.36-6.98.31-10.43-.18-1.12-.16-2.21.11-2.82,1.15-.55.94-.41,2.27.39,3.03,3.74,3.53,6.84,7.51,10.11,11.46,3.42,4.12,7.53,7.44,12.09,10.24,3.52,2.16,7.23,4.2,11.02,5.86,2.75,1.21,5.71,1.84,8.66,2.3,7.92,1.25,16.03,1.5,24.03,1.15,4.72-.21,9.43-.72,14.09-1.44,5.09-.79,10.17-2.11,14.56-4.91,2.71-1.72.2-6.05-2.52-4.32-3.67,2.34-7.84,3.46-12.1,4.2-3.89.67-7.83,1.11-11.77,1.35-7.75.48-15.63.38-23.33-.62-2.85-.37-5.74-.87-8.46-1.81-.28-.1-.57-.2-.85-.31-.43-.17.28.15-.26-.12-1.08-.54-2.18-1.06-3.26-1.61-1.86-.95-3.7-1.93-5.5-2.97-4.72-2.74-8.52-5.48-12.1-9.62-3.61-4.18-6.85-8.55-10.88-12.37-.81,1.39-1.62,2.79-2.43,4.18,7.71,1.12,15.38.46,22.76-2.08,3.64-1.26,7.17-2.86,10.59-4.63s6.84-3.59,10.05-5.68c11.38-7.4,19.98-21.09,18.56-35.01-.75-7.38-4.11-14.98-10.99-18.5-6.55-3.35-14.34-2.9-21.3-1.22-15.02,3.61-28.19,12.21-39.88,22.03-5.88,4.94-11.44,10.24-16.92,15.61-5.38,5.28-10.73,10.6-15.81,16.18-10.06,11.05-19.27,23.32-24.13,37.61-2.64,7.76-3.66,15.98-3.64,24.16.01,4.6.38,9.18.99,13.74.41,3.06,1.21,5.99,2.5,8.8,1.44,3.14,3.73,5.98,6.84,7.6,3.28,1.71,7.01,2.01,10.59,1.24,7.54-1.62,13.14-7.83,17.32-13.92,4.45-6.48,7.55-13.85,10.18-21.23s4.83-15.56,6.5-23.53c3.43-16.34,5.11-33.01,6.39-49.64.3-3.92.58-7.84.85-11.77.09-1.35-1.22-2.5-2.5-2.5-1.43,0-2.41,1.15-2.5,2.5h0Z"/></svg>