<?xml version="1.0" encoding="UTF-8"?><svg id="blomst_og_sommerfugl" xmlns="http://www.w3.org/2000/svg" width="113.8" height="100.37" viewBox="0 0 113.8 100.37"><defs><style>.cls-1{fill:#83806d;stroke-width:0px;}</style></defs><g id="sommerfugl"><path class="cls-1" d="m55.26,53.69c6.94-.34,29.97,14.5,22.44,21.84-5.83,1.93-8.94,3.81-9.77,10.34-1.98,7.49-10.7,9.62-12.66.86-1.03-5.64-.47-11.97-3.81-16.96-.54-.79-1.85-.04-1.3.76,5.32,6.73-.26,19.88,9.26,23.26,8.07,1.44,9.68-7.54,11.78-13.14,1.65-2.45,5.02-2.45,7.37-3.9,9.82-8.39-15.22-24.87-23.31-24.56-.96-.09-.95,1.41,0,1.5Z"/><path class="cls-1" d="m65.89,57.41c13.79,1.16,34.7,1.5,37.54-16.01-1.53-9.46-.17-12.36,4.75-20.37,3.33-8.59-2.91-10.23-9.95-7.61-17.25,3.82-37.27,13.17-43.42,31-.29.92,1.16,1.32,1.45.4,6.36-17.95,26.78-26.65,44.13-30.34,5.41-2.03,9.05.06,6.42,5.96-2.91,5.53-7.27,10.97-4.97,17.58,1.6,12.1-11.9,18.74-22.33,18.21-1.63.75-17.62-1.76-13.61,1.18Z"/><path class="cls-1" d="m47.08,67.87c-6.08,6.89-22.62,26.48-28.48,9.8.26-4.81,4.07-7.61.41-12.47-.82-1.3-1.55-2.55-.72-4.04,7.31-9.5,21.07-8.54,31.85-8.28.97.03.96-1.47,0-1.5-9.56-.25-20.16-.87-28.51,4.6-10.85,7.06-1.04,8.37-3.02,15.9-3.25,5.81-.41,13.26,6.71,13.6,7.44.49,12.61-5.76,17.19-10.7.72-1.12,8.67-7.54,4.56-6.92h0Z"/><path class="cls-1" d="m37.34,51.46c-11.22.47-24.13-6.35-28.8-16.78-3.68-11.15,10.1-10.71,6.83-28.06,1.2-15.73,31.91,16.71,33.51,22.48,2.48,4.23,6.08,9.52,4.5,14.65-.28.92,1.16,1.32,1.45.4,1.81-9.26-5.87-17.57-10.98-24.56C40,14.02,21.41-4.38,14.95,2.6c-3,5.7,1.62,13.07-3.29,18.24-16.19,15.45,10.16,33.53,25.68,32.12.96-.05.97-1.55,0-1.5h0Z"/><path class="cls-1" d="m55.53,45.03c.07,1.82-7.45,42.23-9.43,29.54,2.64-10,4.3-21.47,8.01-30.63"/><path class="cls-1" d="m54.78,45.03c-1.67,10.17-3.6,21.97-7.61,31.3-1.02-2.21.42-4.96,1.01-7.15,2.32-8.25,3.16-16.95,6.59-24.86.39-.88-.91-1.64-1.3-.76-3.81,8.67-4.64,18.29-7.35,27.3-1.43,2.29-.86,9.88,2.8,5.8,1.1-1.55,10.48-37.08,5.87-31.64h0Z"/><path class="cls-1" d="m55.53,44.63c.41-.87.16-2.07.27-3.09.11-1,1.16-4.27.4-4.46-1.43,1.41-.67,5.67-2.33,7.41"/><path class="cls-1" d="m56.18,45c.5-.99.29-2.79.37-3.46.16-1.51,1.24-3.54.31-4.91-1.09-.92-1.91.45-2.01,1.45-.49,2.04-.35,4.28-1.62,6.04-.44.86.85,1.62,1.3.76,1.58-2.08,1.17-4.79,1.99-7.17-.07.17.04-.03.05-.07-.02.12-.1.09-.04.05-.29.26-.67.11-.79-.08-.08-.12-.04-.09,0,.02.17.95-2.33,9.48.45,7.37h0Z"/><path class="cls-1" d="m52.72,20.12c3.16,5.97,2.87,13,2.8,19.56,1.97,1.5-.7-22.11-2.8-19.56h0Z"/><path class="cls-1" d="m66.38,22.39c-5.03,3.3-10.76,12.45-9.97,17.36,1.47-6.47,4.65-13.06,10.22-16.93.27-.18.02-.61-.25-.43h0Z"/><path class="cls-1" d="m51.66,63.2c7.96,9.8,4.79,24.34,11.35,34.54,7.97,5.14,9.28-5.41,10.32-10.84,1.79-4.49,6.83-3.59,10.6-4.91,4.14-1.13,3.67-5.81,2.2-8.94-2.93-6.49-10.02-8.85-16.15-11.26-24.27-15.99-14.53-7.55,1.37,1.07,6.12,2.16,13.1,5.4,14.98,12.19,2.73,12.5-14.96,1.05-14.67,17.7-.46,4.17-3.68,7.32-7.82,4.99-7-7.96-3.81-28.38-12.17-34.54h0Z"/><path class="cls-1" d="m55.12,47.98c7.89,6.47,18.42,8.95,27.52,13.34,9.83,5.71,17.71-1.88,13.43-12.12-3.55-7.46,5.73-10.72,10.96-13.2,19.41-9.98-16.75-14.32-23.41-10.67-9.01,4.98-20.98,11.29-27.3,17.83,9.67-6.69,19.39-14.41,30.54-18.32,6.46-1.39,37.84,1.73,19.91,10.73-4.31,2.27-10.33,3.84-11.85,9.07-.59,2.44.78,4.52,1.36,6.8,2.67,8.9-5.46,14.42-13.14,9.57-9.15-3.79-20.73-8.52-28.04-13.02h0Z"/><path class="cls-1" d="m48.9,62.27c-4.03,3.61-10.63,5.68-12.01,11.4-.33,8.94-5.76,19.28-16,18.67-8.52-.33-5.88-9.65-7.68-15.15-13.33-13.02,6.19-15.86,16-18.03,6.5-2.59,15.44-5.84,20.93-7.27-8.43.56-15.85,5.72-23.98,7.66-7.04.72-22.83,4.38-16.48,14.29,1.99,1.68,3.73,3.71,3.77,6.47.37,3.83-.48,8.47,3.12,11.05,7.3,4.6,16.74-1.89,19.2-9.18,1.62-4.37.37-10.1,4.67-13.08,2.78-2.31,5.85-4.21,8.71-6.4.25-.19,0-.63-.25-.43h0Z"/><path class="cls-1" d="m54,42.35c-9.14-5.98-14.16-16.97-24.7-20.88-5.36-2.01-11.15-2.97-16.72-4.25-4.16-.81-14.44-4.29-10.75,3.89,1.9,6.11,2.99,8.2,9.22,10.21,8.13,6.91-12.68,18.34,5.09,23.44,12.76-.31,21.88-10.93,36.78-8.14-3.12-1.97-10.94-.15-15.4.74-8.65,1.94-22.79,13.99-28.16,1.28-1.28-5.69,6.63-10.25,3.56-15.94-2.18-3.68-7.99-2.6-8.94-7.43-.86-2.98-5.33-9.63.88-8.93,7.5.98,14.97,2.91,22.27,4.91,11.62,2.29,17.9,17.48,26.87,21.09h0Z"/></g></svg>